<svg width="1024" height="1024" viewBox="0 0 1024 1024" fill="none" xmlns="http://www.w3.org/2000/svg">
<path d="M831 463C829.796 456.654 825.525 430.356 823 426.5C821.299 423.902 818.295 426.278 816 426.5C820.032 442.228 822.621 457.937 825 474C826.68 485.339 827.124 496.807 829.5 508C837.031 494.229 847.958 485.908 863.5 494C864.697 497.449 880.33 510.344 880 511.5C878.192 517.836 875.292 513.212 872 515.5C871.615 515.768 869.993 522.361 869 523.5C856.606 537.718 838.772 533.522 831.5 517C826.083 513.651 827.584 536.308 827 540.5C823.749 563.842 817.961 587.041 811 609.5C807.469 620.891 800.456 631.088 798 643L760 700.5C759.85 701.914 764.117 706.206 765.5 706C767.544 705.696 786.455 676.111 789 672C806.898 643.092 820.152 610.694 828 577.5C830.009 569.005 831.782 542.523 834 537.5C834.712 535.886 838.391 535.472 839.5 536C842.461 537.41 836.143 571.189 835 576.5C824.398 625.759 800.638 671.307 771 711.5C781.749 720.674 790.975 732.586 802.5 740C845.597 740.469 888.877 739.309 932 740V747C869.88 749.128 807.662 747.489 745.5 748L743.5 933C741.573 932.868 737.993 933.754 737 931.5C733.605 923.796 739.574 880.907 737 869.5L669.5 799C628.258 820.78 583.426 837.173 536.5 840C534.613 838.665 536.893 834.743 537 834C581.887 829.172 625.986 816.189 665 793.5C663.214 792.231 660.7 788.049 658.5 788C656.868 787.963 634.104 801.107 629.5 803C598.228 815.857 569.638 823.103 536 827C528.664 827.85 521.357 827.92 514 828.5C513.573 835.113 523.691 834.459 528 841.5C534.257 851.722 531.139 863.869 521.5 871C516.822 874.46 505.743 873.509 521 878.5C515.082 882.953 507.051 882.481 501 878.5L509 874.5C490.794 869.856 483.834 848.205 499.5 836C501.2 834.676 514.03 831.929 508.5 828C506.865 826.838 474.774 825.984 468.5 825C452.804 822.539 436.157 818.7 421 814C400.824 807.744 381.704 797.606 362.5 789C361.707 790.435 357.079 792.685 358.5 795C360.671 798.537 408.374 817.321 415 818C436.472 827.577 461.116 831.429 484.5 833C493.042 844.528 463.767 837.83 458.5 837C421.342 831.145 385.426 816.514 352.5 799C346.132 812.434 289.291 858.634 287 866.5C286.032 869.823 287.634 877.404 287 881.5C286.853 882.452 284.113 881.553 284 882.5C283.061 890.376 285.486 929.298 283 932.5L276 931.5L274.5 747C213.365 747.078 151.726 749.728 90.5 748C89.7631 747.979 89.1249 746.004 89 746V740C150.992 739.007 213.052 741.046 275 738.5C238.241 698.574 209.73 652.751 192.5 601L96 600.5L191.5 598C187.982 577.557 181.407 557.376 181 536.5C189.977 531.861 188.735 546.819 190 554C191.06 560.02 196.553 596.156 200.5 598C201.514 598.474 206.249 598.664 207 596.5C207.6 594.77 199.103 563.959 198 561L193.5 517H189.5C182.92 533.773 165.629 537.52 153 523.5C152.031 522.424 149.891 515.271 149.5 515C148.634 514.401 144.282 516.194 143 513.5C140.015 507.225 148.161 508.347 148.5 508C150.495 505.956 150.805 501.734 152 500.5C164.707 487.377 176.75 487.121 188 502C188.679 502.899 191.045 510.884 194 506.5C194.924 505.129 195.305 478.383 196 473.5C196.897 467.2 207.527 426.433 205.5 425C205.296 424.856 200.826 424.852 200.5 425C196.425 426.853 191.254 464.68 190 471C189.494 473.549 187.93 486.312 186.5 487C179.747 490.251 180.892 479.886 181 476.5L190.5 425L28.5 426L28 420.5L192.5 420C210.869 368.867 237.772 322.277 276 283.5L89.5 283L89 275.5L274.5 275L276 90.5L284 91.5C284.178 117.328 283.761 143.184 284 169C284.04 173.284 281.695 182.024 283 186.5L332.5 236C334.524 236.247 341.98 229.139 344 228C388.348 202.989 434.025 184.835 485.5 181C487.756 190.189 483.75 186.839 479 188C451.819 194.647 428.804 196.688 401.5 207C393.523 210.013 336.994 236.72 337 241.5C337.015 253.073 361.909 233.842 365.5 232C379.751 224.689 397.581 215.228 412.5 210C429.42 204.071 459.32 201.821 473 196L509 192.5C509.93 189.24 501.391 188.473 499.5 187C489.37 179.109 487.366 162.807 497.5 154C499.835 151.971 507.485 149.57 508 148.5C508.867 146.701 506.395 141.341 510.5 141C515.548 140.58 512.98 148.334 513.5 149C514.055 149.71 523.15 151.563 527 156.5C532.109 163.052 532.957 173.361 529 180.5C525.504 186.807 517.099 187.706 513 192.5C513.516 194.237 534.184 194.563 538 195C564.797 198.072 588.782 204.229 614.5 212L665.5 238C667.058 237.964 671.288 233.839 671 232.5C670.281 229.157 622.007 207.334 615.5 205C589.833 195.793 562.931 190.95 536 187C535.946 185.514 536.036 183.999 536 182.5C538.985 177.632 595.127 191.409 603.5 194C623.027 200.041 645.338 210.51 663.5 220C668.592 222.661 686.697 236.45 690.5 235L739 185.5C738.856 179.509 739.198 173.487 739 167.5C738.987 167.105 737.01 165.891 737 165.5C736.083 129.421 738.852 93.5059 738 57.5L743.5 56L744 273.5C765.868 280.776 928.35 268.272 933 276.5C933.525 277.429 933.236 282.235 931.5 283L746 283.5C783.156 323 811.643 368.168 828.5 420C843.92 423.525 957.021 415.203 961 420.5C961.212 420.782 961.207 424.5 960.5 425C955.234 428.724 846.884 422.139 831.5 425L841 485.5C831.378 490.44 832.41 470.43 831 463ZM283.5 192L284.5 276L330 236.5L283.5 192ZM737.5 193L693 238.5L738.5 275L737.5 193ZM498.5 209C453.143 213.356 407.837 225.285 369 249.5C374.315 253.116 400.648 283.372 403.5 284C404.583 284.239 411.288 282.708 414.5 283C415.674 283.107 418.655 286.342 421.5 286C426.906 285.351 489.913 218.162 498.5 209ZM522.5 210C533.071 217.934 594.922 284.904 600.5 286C602.81 286.454 606.577 283.209 608.5 283C611.381 282.686 618.009 284.106 618.5 284C621.283 283.399 647.736 253.097 653 249.5C614.149 225.329 568.163 212.449 522.5 210ZM676.5 235C676.111 234.999 671.002 240.111 671 240.5C670.98 244.256 685.048 249.356 685 241.5C684.997 240.965 677.035 235.002 676.5 235ZM334.5 243C331.947 242.851 298.674 270.727 295 275.5C295.358 278.122 303.37 276.926 305.5 276C307.426 275.163 337.079 251.547 338.5 250C340.761 247.538 334.994 243.029 334.5 243ZM687.5 244C682.592 244.904 683.481 249.012 686.5 252C688.811 254.287 715.66 276.239 717.5 277C721.023 278.456 725.343 278.384 729 277.5C724.587 272.427 691.36 243.289 687.5 244ZM661.5 254L628 288.5C655.661 305.676 681.369 326.109 702.5 351L736 317.5C714.191 293.208 689.514 270.933 661.5 254ZM320 352C382.667 415.815 446.411 478.592 509.5 542L693 360.5C692.325 359.438 692.329 357.303 692 356.5C687.689 345.994 631.843 302.923 619.5 298C618.144 297.459 616.891 300.046 616.5 300C615.973 299.939 616.189 293.786 609.5 294L653 338.5L510.5 480L369 339.5C368.931 336.849 402.585 307.356 407 302.5C407.713 301.716 405.926 300.584 406 300.5C406.62 299.795 413.936 297.986 412.5 294C388.472 303.318 368.552 319.997 349.5 337C346.025 340.101 330.9 357.624 329.5 358C327.926 358.422 322.792 351.505 320 352C316.971 345.224 383.071 292.323 394 288.5L360.5 255C331.342 270.02 309.058 294.873 286 317.5C285.751 319.909 315.906 347.831 320 352ZM289.5 283C284.629 283.596 281.899 289.489 283.5 294C286.524 291.969 300.009 281.714 289.5 283ZM302.5 283C301.845 283.073 300.103 285.469 301.5 286C302.294 286.302 305.559 282.661 302.5 283ZM729.5 283L738.5 294C740.965 287.58 736.099 281.772 729.5 283ZM720.5 284C718.83 286.171 721.638 285.748 722.5 287C724.07 286.318 721.833 283.452 720.5 284ZM418 288C412.33 288.277 417.836 294.541 419 289C421.594 287.996 418.688 285.525 418 288ZM603.5 287C601.394 287.115 602.197 290.867 605.5 290C606.353 289.277 603.68 286.99 603.5 287ZM745.5 293C740.193 304.36 754.099 312.34 760 320.5C775.007 341.25 788.777 362.398 800 385.5C802.335 390.306 811.697 417.297 813 418.5C815.255 420.583 820.465 421.183 820.5 418C804.895 371.026 779.394 329 745.5 293ZM274.5 295C248.403 323.83 224.592 358.185 210 394.5C208.769 397.563 202.232 413.923 202 415.5C201.118 421.489 205.593 421.846 209 418.5C210.186 417.335 218.866 391.932 221 387.5C226.976 375.092 233.742 362.197 241 350.5C246.008 342.429 275.214 307.281 276 304.5C276.273 303.536 276.867 295.354 274.5 295ZM736.5 300C734.741 300.821 738.298 304.566 739.5 304C741.256 303.173 737.705 299.437 736.5 300ZM282.5 302C282.342 302.067 280.922 304.454 281.5 305C283.491 305.075 284.654 301.092 282.5 302ZM510.5 305L440 376.5L510.5 447L582 375.5L510.5 305ZM740.5 322C741.243 335.256 736.681 412.301 743 418.5C746.804 422.232 787.705 418.778 795.5 420C797.57 419.217 792.731 407.45 792 405.5C780.967 376.075 759.995 346.393 740.5 322ZM280.5 324C274.706 323.206 223.921 405.909 226.5 420C237.963 417.658 267.224 423.115 276.5 420C278.971 419.17 280.991 411.628 283 409.5L280.5 324ZM700.5 352C699.628 352.215 692.078 357.902 694.5 359C696.544 358.204 701.35 354.682 700.5 352ZM224.5 425C218.091 428.609 207.738 495.828 210 506.5L258.5 507C261.165 479.42 265.375 452.053 276 426.5L224.5 425ZM748.5 425C742.05 427.171 750.897 438.686 752 442.5C757.971 463.147 761.591 484.874 762 506.5L809.5 507C814.476 480.056 806.397 452.091 799 426.5L748.5 425ZM276.5 433C275.667 435.711 280.471 439.21 282.5 440C282.425 437.125 279.116 433.887 276.5 433ZM744.5 433L739.5 440C740.712 440.658 748.845 432.438 744.5 433ZM283.5 442C279.607 443.372 267.841 499.211 271.5 507L292 505.5C293.136 502.941 292.783 452.188 292 449.5C291.815 448.865 284.45 441.665 283.5 442ZM737.5 442C736.397 443.755 730.363 448.253 730 449.5C726.48 461.582 732.644 492.385 730 506.5L749.5 507C753.497 499.675 741.437 442.483 737.5 442ZM655.5 494L511.5 639L366.5 495L365 573.5L511.5 718L657 573.5L655.5 494ZM211.5 516C205.573 518.63 218.374 596.621 225.5 599H273.5L259 517.5L211.5 516ZM730.5 516C728.103 517.588 729.196 570.74 730 573.5C730.175 574.101 737.594 581.397 738.5 581L750 517.5L730.5 516ZM271.5 517C268.015 525.011 278.887 581.149 284.5 581C285.067 580.985 291.675 573.805 292 572.5C295.268 559.366 289.552 532.178 292 517.5L271.5 517ZM762.5 517C758.063 567.295 745.311 616.593 715 657.5L748.5 690C786.698 642.077 812.941 579.134 810.5 517H762.5ZM281.5 582L276.5 589C277.712 589.658 285.845 581.438 281.5 582ZM739.5 582L745.5 590C747.942 589.197 741.093 581.97 739.5 582ZM274.5 600L225 602.5C249.268 674.336 303.275 733.06 366.5 773L403 737.5C371.403 721.689 340.177 696.149 317 669.5C298.479 648.204 286.905 625.07 274.5 600ZM201.5 601C196.856 603.7 226.652 662.775 230 668.5C242.575 690.001 258.534 709.864 275.5 728C275.956 727.648 276.19 717.043 276 716.5C275.165 714.12 248.607 684.514 244 677.5C234.776 663.459 226.029 646.775 219 631.5C217.044 627.248 210.026 603.64 209 602.5C207.495 600.828 202.726 600.288 201.5 601ZM731.5 603C725.924 605.761 699.085 638.921 699 641.5C698.922 643.878 704.308 647.059 705.5 649L731.5 603ZM293.5 610C315.966 659.442 362.196 705.964 412 727.5C404.139 721.658 356.572 671.5 352.5 671C351.316 670.855 331.548 685.278 348 666.5L293.5 610ZM691.5 650L610 726.5C611.094 728.429 614.98 726.559 616.5 726C629.692 721.147 697.904 669.007 699 658.5C699.21 656.491 692.793 651.88 691.5 650ZM708.5 666C684.707 691.736 658.89 716.402 628 733.5L658.5 770C689.882 751.675 716.464 726.105 741 699.5L708.5 666ZM757.5 705C755.065 705.003 739.384 723.818 745.5 729C747.779 726.634 761.984 712.112 762 710.5C762.014 709.143 757.855 705 757.5 705ZM767.5 715L745 738.5L790.5 740L767.5 715ZM282.5 718C279.872 719.304 298.962 738.877 302.5 739L282.5 718ZM738.5 718C737.339 718.953 724.084 730.824 729.5 731C730.348 731.028 743.245 717.889 738.5 718ZM738.5 728L729.5 739C737.589 739.843 740.782 735.393 738.5 728ZM607.5 729L602.5 735C604.112 735.36 610.131 730.633 607.5 729ZM284.5 730C279.823 730.655 285.172 743.042 292.5 739C292.439 737.347 285.096 729.917 284.5 730ZM414.5 731C414.239 733.097 418.903 736.467 420 734.5L414.5 731ZM725.5 731L717 737.5C720.87 741.698 723.693 736.57 726.5 734L725.5 731ZM600.5 736C595.11 736.778 533.345 804.703 522 811.5C554.79 810.783 590.22 802.618 620.5 790C624.497 788.334 647.798 777.723 649.5 776C651.567 773.907 650.986 773.876 650 771.5C649.119 769.376 620.743 738.504 618.5 738C617.961 737.879 610.481 739.244 607.5 739C606.213 738.895 601.696 735.827 600.5 736ZM418.5 737C418.32 737.004 415.68 738.995 415.5 739C412.846 739.068 405.04 737.883 404.5 738C401.654 738.614 374.397 769.809 369 773.5C407.902 796.439 453.635 809.527 499 811.5L422.5 737C421.167 737.02 419.832 736.97 418.5 737ZM718.5 745L682 775.5C683.808 777.054 684.577 779.266 687.5 779C692.592 778.538 721.707 750.992 728 746.5C728.239 744.783 719.238 744.77 718.5 745ZM294.5 746C296.979 750.663 333.385 780.787 336 778.5C336.703 777.885 337.355 773.575 337 772.5C329.916 770.041 308.458 747.276 304.5 746C302.292 745.288 297.186 746.511 294.5 746ZM284.5 748L283 831.5C284.255 833.686 285.992 831.906 287.5 831C289.324 829.904 294.761 821.034 298 822.5C286.584 832.571 279.55 838.254 283.5 855L344 794.5L284.5 748ZM736.5 748C733.626 747.861 698.807 781.731 692 784.5L739.5 830C738.512 802.891 741.851 775.509 739 748.5C738.479 747.644 737.377 748.042 736.5 748ZM343.5 777C343.112 777.074 338.904 782.867 339 783.5C339.331 785.692 347.314 789.532 350.5 788C359.053 783.888 344.387 776.831 343.5 777ZM676.5 777C676.04 777.067 670.319 781.831 669 782.5C668.762 783.607 674.074 789.002 674.5 789C675.076 788.997 683.854 783.057 684 782.5C684.559 780.373 679.196 776.609 676.5 777ZM687.5 787C686.684 786.98 677.791 792.422 678 794.5C678.428 798.757 731.551 847.87 738.5 855C739.18 854.449 739.445 839.027 739 837.5C737.992 834.037 691.105 787.088 687.5 787Z" fill="black"/>
<path d="M441.5 121C441.988 120.973 442.174 121.876 442 122.5C441.432 126.22 440.223 121.072 441.5 121Z" fill="#D1D3CF"/>
<path d="M369.5 122L371 122.5L369.5 124L369 123.5L369.5 122Z" fill="#D6DAD5"/>
<path d="M441.5 146C443.643 144.455 442.72 149.534 441.5 149C440.733 148.664 440.655 146.609 441.5 146Z" fill="#D9DDDC"/>
<path d="M584.5 146C586.018 145.45 586.699 147.473 585.5 148C584.036 148.643 583.295 146.436 584.5 146Z" fill="#D8DCDB"/>
<path d="M344 228C341.98 229.139 334.524 236.247 332.5 236L283 186.5C281.695 182.024 284.04 173.284 284 169L344 228Z" fill="#F3F4F3"/>
<path d="M393.5 170C394.736 169.148 394.818 173.831 393.5 173C392.739 172.52 392.639 170.594 393.5 170Z" fill="#DAE1DC"/>
<path d="M632.5 171C634.018 170.45 634.699 172.473 633.5 173C632.036 173.643 631.295 171.436 632.5 171Z" fill="#D8DDDB"/>
<path d="M703.5 171C705.018 170.45 705.699 172.473 704.5 173C703.036 173.643 702.295 171.436 703.5 171Z" fill="#DEE2D8"/>
<path d="M801.5 171C803.018 170.45 803.699 172.473 802.5 173C801.036 173.643 800.295 171.436 801.5 171Z" fill="#CED2D2"/>
<path d="M538 195C538.343 192.252 536.094 189.572 536 187C562.931 190.95 589.833 195.793 615.5 205C622.007 207.334 670.281 229.157 671 232.5C671.288 233.839 667.058 237.964 665.5 238L614.5 212C588.782 204.229 564.797 198.072 538 195Z" fill="#F7F8F7"/>
<path d="M479 188C480.272 197.396 476.112 192.557 473.5 194C472.571 194.513 473.139 195.941 473 196C459.32 201.821 429.42 204.071 412.5 210C397.581 215.228 379.751 224.689 365.5 232C361.909 233.842 337.015 253.073 337 241.5C336.994 236.72 393.523 210.013 401.5 207C428.804 196.688 451.819 194.647 479 188Z" fill="#F6F6F6"/>
<path d="M283.5 192L330 236.5L284.5 276L283.5 192Z" fill="#F5F6F5"/>
<path d="M737.5 193L738.5 275L693 238.5L737.5 193ZM727.5 221L726 222.5L726.5 223L728 222.5L727.5 221Z" fill="#F7F7F6"/>
<path d="M727.5 221L728 222.5L726.5 223L726 222.5L727.5 221Z" fill="#DBD9DC"/>
<path d="M778.5 221L779 222.5L777.5 223L777 222.5L778.5 221Z" fill="#D0D9D9"/>
<path d="M676.5 235C677.035 235.002 684.997 240.965 685 241.5C685.048 249.356 670.98 244.256 671 240.5C671.002 240.111 676.111 234.999 676.5 235Z" fill="#F9F9F9"/>
<path d="M334.5 243C334.994 243.029 340.761 247.538 338.5 250C337.079 251.547 307.426 275.163 305.5 276C303.37 276.926 295.358 278.122 295 275.5C298.674 270.727 331.947 242.851 334.5 243ZM309.5 266L309 267.5L309.5 268L311 266.5L309.5 266Z" fill="#F8F9F8"/>
<path d="M687.5 244C691.36 243.289 724.587 272.427 729 277.5C725.343 278.384 721.023 278.456 717.5 277C715.66 276.239 688.811 254.287 686.5 252C683.481 249.012 682.592 244.904 687.5 244Z" fill="#F8F9F8"/>
<path d="M609.5 245L610 246.5L608.5 247L608 246.5L609.5 245Z" fill="#DCE4E5"/>
<path d="M309.5 266L311 266.5L309.5 268L309 267.5L309.5 266Z" fill="#C7CABE"/>
<path d="M417.5 271L418 272.5L416.5 273L416 272.5L417.5 271Z" fill="#E2DDDA"/>
<path d="M289.5 283C300.009 281.714 286.524 291.969 283.5 294C281.899 289.489 284.629 283.596 289.5 283Z" fill="#F6F7F6"/>
<path d="M302.5 283C305.559 282.661 302.294 286.302 301.5 286C300.103 285.469 301.845 283.073 302.5 283Z" fill="#EDEFEC"/>
<path d="M729.5 283C736.099 281.772 740.965 287.58 738.5 294L729.5 283Z" fill="#F8F9F8"/>
<path d="M720.5 284C721.833 283.452 724.07 286.318 722.5 287C721.638 285.748 718.83 286.171 720.5 284Z" fill="#C4CECF"/>
<path d="M419 289C419.159 288.245 418.742 287.964 418 288C418.688 285.525 421.594 287.996 419 289Z" fill="#8A8E98"/>
<path d="M603.5 287C603.68 286.99 606.353 289.277 605.5 290C602.197 290.867 601.394 287.115 603.5 287Z" fill="#F4F8F7"/>
<path d="M419 289C417.836 294.541 412.33 288.277 418 288C418.742 287.964 419.159 288.245 419 289Z" fill="#EFEBEC"/>
<path d="M745.5 293C779.394 329 804.895 371.026 820.5 418C820.465 421.183 815.255 420.583 813 418.5C811.697 417.297 802.335 390.306 800 385.5C788.777 362.398 775.007 341.25 760 320.5C754.099 312.34 740.193 304.36 745.5 293Z" fill="#F7F8F7"/>
<path d="M274.5 295C276.867 295.354 276.273 303.536 276 304.5C275.214 307.281 246.008 342.429 241 350.5C233.742 362.197 226.976 375.092 221 387.5C218.866 391.932 210.186 417.335 209 418.5C205.593 421.846 201.118 421.489 202 415.5C202.232 413.923 208.769 397.563 210 394.5C224.592 358.185 248.403 323.83 274.5 295Z" fill="#F6F8F7"/>
<path d="M321.5 299C323.018 298.45 323.699 300.473 322.5 301C321.036 301.643 320.296 299.436 321.5 299Z" fill="#E6E6DF"/>
<path d="M655.5 299L657 299.5L656.5 301L656 300.5L655.5 299Z" fill="#DAD6D6"/>
<path d="M702.5 299L704 299.5L703.5 301L703 300.5L702.5 299Z" fill="#E5DBE0"/>
<path d="M864.5 299L865 300.5L863.5 301L863 300.5L864.5 299Z" fill="#D3D7D7"/>
<path d="M736.5 300C737.705 299.437 741.256 303.173 739.5 304C738.298 304.566 734.741 300.821 736.5 300Z" fill="#B5BDBE"/>
<path d="M282.5 302C284.654 301.092 283.491 305.075 281.5 305C280.922 304.454 282.342 302.067 282.5 302Z" fill="#9F9C9B"/>
<path d="M850.5 323L851 324.5L849.5 325L849 324.5L850.5 323Z" fill="#D4D8DD"/>
<path d="M753.5 348L754.5 349V350H753.5V348Z" fill="#DBDADC"/>
<path d="M802.5 348L803.5 349V350H802.5V348Z" fill="#DCD5DC"/>
<path d="M900.5 348C901.738 349.836 900.891 352.132 899.5 350C898.792 348.914 899.888 348.793 900.5 348Z" fill="#CFD1CF"/>
<path d="M973.5 348L974 349.5L972.5 350L972 349.5L973.5 348Z" fill="#C7CBC7"/>
<path d="M700.5 352C701.35 354.682 696.544 358.204 694.5 359C692.078 357.902 699.628 352.215 700.5 352Z" fill="#C0C1BD"/>
<path d="M777.5 399C779.018 398.45 779.699 400.473 778.5 401C777.036 401.643 776.295 399.436 777.5 399Z" fill="#E4E0E0"/>
<path d="M188 502C190.352 504.161 192.921 498.898 193 498.5C194.848 489.152 192.85 475.325 194 465.5L190 471C191.254 464.68 196.425 426.853 200.5 425C200.826 424.852 205.296 424.856 205.5 425C207.527 426.433 196.897 467.2 196 473.5C195.305 478.383 194.924 505.129 194 506.5C191.045 510.884 188.679 502.899 188 502Z" fill="#F7F8F7"/>
<path d="M831 463C828.447 466.712 831.68 475.501 825 474C822.621 457.937 820.032 442.228 816 426.5C818.295 426.278 821.299 423.902 823 426.5C825.525 430.356 829.796 456.654 831 463Z" fill="#F6F6F5"/>
<path d="M276.5 433C279.116 433.887 282.425 437.125 282.5 440C280.471 439.21 275.667 435.711 276.5 433Z" fill="#E6ECEA"/>
<path d="M744.5 433C748.845 432.438 740.712 440.658 739.5 440L744.5 433Z" fill="#CED0D2"/>
<path d="M737.5 442C741.437 442.483 753.497 499.675 749.5 507L730 506.5C732.644 492.385 726.48 461.582 730 449.5C730.363 448.253 736.397 443.755 737.5 442Z" fill="#FBFBFA"/>
<path d="M900.5 471C902.406 470.833 901.636 474.946 899.5 474C898.112 473.385 899.879 471.054 900.5 471Z" fill="#D8DEDE"/>
<path d="M778.5 478C779.738 479.836 778.891 482.132 777.5 480C776.792 478.914 777.888 478.793 778.5 478Z" fill="#E3E3E9"/>
<path d="M897.5 496C898.23 495.469 900.722 496.075 900 497.5C899.213 499.052 895.354 497.56 897.5 496Z" fill="#DAD9E1"/>
<path d="M211.5 516L259 517.5L273.5 599H225.5C218.374 596.621 205.573 518.63 211.5 516Z" fill="#FCFCFB"/>
<path d="M730.5 516L750 517.5L738.5 581C737.594 581.397 730.175 574.101 730 573.5C729.196 570.74 728.103 517.588 730.5 516ZM742.5 547C741.295 547.436 742.036 549.643 743.5 549C744.699 548.473 744.018 546.45 742.5 547Z" fill="#FBFAFA"/>
<path d="M898.5 522C900.863 522.287 899.128 526.483 897.5 524C896.842 522.997 898.389 521.987 898.5 522Z" fill="#D8D9DD"/>
<path d="M1006.5 522C1008.22 521.234 1008.62 524.504 1007.5 525C1005.78 525.766 1005.38 522.496 1006.5 522Z" fill="#B9BEC0"/>
<path d="M792.5 523L794 523.5L792.5 525L792 524.5L792.5 523Z" fill="#E3E4E8"/>
<path d="M802.5 523C803.738 524.836 802.891 527.132 801.5 525C800.792 523.914 801.888 523.793 802.5 523Z" fill="#E3E1E3"/>
<path d="M773.5 524L775 524.5L774.5 526L774 525.5L773.5 524Z" fill="#D2CBCB"/>
<path d="M742.5 547C744.018 546.45 744.699 548.473 743.5 549C742.036 549.643 741.295 547.436 742.5 547Z" fill="#CFCBCC"/>
<path d="M875.5 547C875.849 546.763 877.701 546.842 878 547.5C878.755 549.159 872.287 549.182 875.5 547Z" fill="#DBDDDE"/>
<path d="M198 561C199.103 563.959 207.6 594.77 207 596.5C206.249 598.664 201.514 598.474 200.5 598C196.553 596.156 191.06 560.02 190 554C192.422 558.305 194.015 553.846 194.5 554C197.052 554.812 195.446 559.296 196 560.5C196.419 561.41 197.953 560.873 198 561Z" fill="#F5F5F5"/>
<path d="M850.5 572L852 572.5L850.5 574L850 573.5L850.5 572Z" fill="#DEDEE0"/>
<path d="M281.5 582C285.845 581.438 277.712 589.658 276.5 589L281.5 582Z" fill="#D8D9DD"/>
<path d="M739.5 582C741.093 581.97 747.942 589.197 745.5 590L739.5 582Z" fill="#D8DEDC"/>
<path d="M923.5 595C924.523 595.317 924.35 598.72 922.5 598C920.982 597.409 923.153 594.892 923.5 595Z" fill="#D2D6D6"/>
<path d="M887.5 596L889 596.5L887.5 598L887 597.5L887.5 596Z" fill="#D6D5D2"/>
<path d="M201.5 601C202.726 600.288 207.495 600.828 209 602.5C210.026 603.64 217.044 627.248 219 631.5C226.029 646.775 234.776 663.459 244 677.5C248.607 684.514 275.165 714.12 276 716.5C276.19 717.043 275.956 727.648 275.5 728C258.534 709.864 242.575 690.001 230 668.5C226.652 662.775 196.856 603.7 201.5 601Z" fill="#F5F6F5"/>
<path d="M731.5 603L705.5 649C704.308 647.059 698.922 643.878 699 641.5C699.085 638.921 725.924 605.761 731.5 603Z" fill="#FCFCFC"/>
<path d="M293.5 610L348 666.5C331.548 685.278 351.316 670.855 352.5 671C356.572 671.5 404.139 721.658 412 727.5C362.196 705.964 315.966 659.442 293.5 610ZM322.5 646L322 647.5L322.5 648L324 646.5L322.5 646Z" fill="#FCFCFC"/>
<path d="M245.5 621L246 622.5L244.5 623L244 622.5L245.5 621Z" fill="#E7E3E6"/>
<path d="M938.5 621L940 621.5L938.5 623L938 622.5L938.5 621Z" fill="#D1D8D9"/>
<path d="M798 643C797.533 645.265 797.526 648.561 797 651.5C796.883 652.155 799.151 651.854 799 652.5C797.766 657.771 788.399 665.49 789 672C786.455 676.111 767.544 705.696 765.5 706C764.117 706.206 759.85 701.914 760 700.5L798 643Z" fill="#F8F9F8"/>
<path d="M850.5 645C852.863 645.287 851.128 649.483 849.5 647C848.842 645.997 850.389 644.987 850.5 645Z" fill="#DDE3DE"/>
<path d="M322.5 646L324 646.5L322.5 648L322 647.5L322.5 646Z" fill="#D5D0D2"/>
<path d="M691.5 650C692.793 651.88 699.21 656.491 699 658.5C697.904 669.007 629.692 721.147 616.5 726C614.98 726.559 611.094 728.429 610 726.5L691.5 650ZM677.5 672C676.467 672.517 678.389 674.01 678.5 674C681.392 673.738 680.195 671.412 677.5 672Z" fill="#FBFBFB"/>
<path d="M677.5 672C680.195 671.412 681.392 673.738 678.5 674C678.389 674.01 676.467 672.517 677.5 672Z" fill="#BEBBBA"/>
<path d="M801.5 696C804.074 694.635 804.387 697.786 802.5 698C802.389 698.013 800.48 696.541 801.5 696Z" fill="#DFE4E1"/>
<path d="M757.5 705C757.855 705 762.014 709.143 762 710.5C761.984 712.112 747.779 726.634 745.5 729C739.384 723.818 755.065 705.003 757.5 705Z" fill="#F3F4F1"/>
<path d="M767.5 715L790.5 740L745 738.5L767.5 715Z" fill="#F8F9F8"/>
<path d="M282.5 718L302.5 739C298.962 738.877 279.872 719.304 282.5 718Z" fill="#E7E7E5"/>
<path d="M738.5 718C743.245 717.889 730.348 731.028 729.5 731C724.084 730.824 737.339 718.953 738.5 718Z" fill="#F2F2F2"/>
<path d="M738.5 728C740.782 735.393 737.589 739.843 729.5 739L738.5 728Z" fill="#F5F6F6"/>
<path d="M607.5 729C610.131 730.633 604.112 735.36 602.5 735L607.5 729Z" fill="#D9D8DB"/>
<path d="M284.5 730C285.096 729.917 292.439 737.347 292.5 739C285.172 743.042 279.823 730.655 284.5 730Z" fill="#F3F4F3"/>
<path d="M386.5 731L362 754.5C368.328 744.479 377.145 734.656 386.5 731Z" fill="#DDDEDF"/>
<path d="M414.5 731L420 734.5C418.903 736.467 414.239 733.097 414.5 731Z" fill="#E8EDEA"/>
<path d="M725.5 731L726.5 734C723.693 736.57 720.87 741.698 717 737.5L725.5 731Z" fill="#DBDBDC"/>
<path d="M718.5 745C719.238 744.77 728.239 744.783 728 746.5C721.707 750.992 692.592 778.538 687.5 779C684.577 779.266 683.808 777.054 682 775.5L718.5 745Z" fill="#F9FAF9"/>
<path d="M294.5 746C297.186 746.511 302.292 745.288 304.5 746C308.458 747.276 329.916 770.041 337 772.5C337.355 773.575 336.703 777.885 336 778.5C333.385 780.787 296.979 750.663 294.5 746Z" fill="#FAFBFA"/>
<path d="M608.5 747C609.738 748.836 608.891 751.132 607.5 749C606.792 747.914 607.888 747.793 608.5 747Z" fill="#D7D2CE"/>
<path d="M736.5 748C737.377 748.042 738.479 747.644 739 748.5C741.851 775.509 738.512 802.891 739.5 830L692 784.5C698.807 781.731 733.626 747.861 736.5 748Z" fill="#F7F7F6"/>
<path d="M441.5 772C442.736 771.148 442.818 775.831 441.5 775C440.739 774.52 440.639 772.594 441.5 772Z" fill="#E3E7E3"/>
<path d="M343.5 777C344.387 776.831 359.053 783.888 350.5 788C347.314 789.532 339.331 785.692 339 783.5C338.904 782.867 343.112 777.074 343.5 777Z" fill="#F5F6F5"/>
<path d="M676.5 777C679.196 776.609 684.559 780.373 684 782.5C683.854 783.057 675.076 788.997 674.5 789C674.074 789.002 668.762 783.607 669 782.5C670.319 781.831 676.04 777.067 676.5 777Z" fill="#F7F7F5"/>
<path d="M687.5 787C691.105 787.088 737.992 834.037 739 837.5C739.445 839.027 739.18 854.449 738.5 855C731.551 847.87 678.428 798.757 678 794.5C677.791 792.422 686.684 786.98 687.5 787Z" fill="#F7F6F6"/>
<path d="M537 834C537.544 830.226 541.911 829.48 536 827C569.638 823.103 598.228 815.857 629.5 803C634.104 801.107 656.868 787.963 658.5 788C660.7 788.049 663.214 792.231 665 793.5C625.986 816.189 581.887 829.172 537 834Z" fill="#F7F8F7"/>
<path d="M421 814L422.5 817C418.468 818.954 419.086 818.419 415 818C408.374 817.321 360.671 798.537 358.5 795C357.079 792.685 361.707 790.435 362.5 789C381.704 797.606 400.824 807.744 421 814Z" fill="#F6F7F6"/>
<path d="M464.5 798L466 798.5L464.5 800L464 799.5L464.5 798Z" fill="#E2DFE4"/>
<path d="M754.5 822L755 823.5L753.5 824L753 823.5L754.5 822Z" fill="#D3D8D0"/>
<path d="M441.5 922C441.988 921.973 442.174 922.876 442 923.5C441.432 927.22 440.223 922.072 441.5 922Z" fill="#D5D3DA"/>
<path d="M560.5 923C562.222 922.234 562.616 925.504 561.5 926C559.778 926.766 559.384 923.496 560.5 923Z" fill="#D4D7D5"/>
<path d="M595.5 973H596.5C598.474 972.842 598.474 974.158 596.5 974L595.5 973Z" fill="#B2B0AC"/>
</svg>
